<?xml version="1.0" encoding="UTF-8"?>
<svg width="120px" height="123px" viewBox="0 0 120 123" version="1.1" xmlns="http://www.w3.org/2000/svg" xmlns:xlink="http://www.w3.org/1999/xlink">
    <!-- Generator: Sketch 64 (93537) - https://sketch.com -->
    <title>Artboard</title>
    <desc>Created with Sketch.</desc>
    <g id="Artboard" stroke="none" stroke-width="1" fill="none" fill-rule="evenodd">
        <g id="Dither" fill="#FFFFFF">
            <rect id="Rectangle" x="0" y="0" width="20" height="20"></rect>
            <rect id="Rectangle-Copy-7" x="0" y="40" width="20" height="20"></rect>
            <rect id="Rectangle-Copy-4" x="80" y="0" width="20" height="20"></rect>
            <rect id="Rectangle-Copy-8" x="80" y="40" width="20" height="20"></rect>
            <rect id="Rectangle-Copy-2" x="40" y="0" width="20" height="20"></rect>
            <rect id="Rectangle-Copy-9" x="40" y="40" width="20" height="20"></rect>
            <rect id="Rectangle-Copy" x="20" y="20" width="20" height="20"></rect>
            <rect id="Rectangle-Copy-11" x="20" y="60" width="20" height="20"></rect>
            <rect id="Rectangle-Copy-6" x="100" y="20" width="20" height="20"></rect>
            <rect id="Rectangle-Copy-12" x="100" y="60" width="20" height="20"></rect>
            <rect id="Rectangle-Copy-3" x="60" y="20" width="20" height="20"></rect>
            <rect id="Rectangle-Copy-13" x="60" y="60" width="20" height="20"></rect>
            <rect id="Rectangle" x="0" y="83" width="20" height="20"></rect>
            <rect id="Rectangle-Copy-4" x="80" y="83" width="20" height="20"></rect>
            <rect id="Rectangle-Copy-2" x="40" y="83" width="20" height="20"></rect>
            <rect id="Rectangle-Copy" x="20" y="103" width="20" height="20"></rect>
            <rect id="Rectangle-Copy-6" x="100" y="103" width="20" height="20"></rect>
            <rect id="Rectangle-Copy-3" x="60" y="103" width="20" height="20"></rect>
        </g>
    </g>
</svg>